<svg width="26" height="18" viewBox="0 0 26 18" fill="none" xmlns="http://www.w3.org/2000/svg">
<path d="M25.2001 2.94795C24.9121 1.86795 24.0601 1.01595 22.9761 0.723951C21.0161 0.199951 13.1521 0.199951 13.1521 0.199951C13.1521 0.199951 5.29208 0.199951 3.32808 0.723951C2.24808 1.01195 1.39608 1.86395 1.10408 2.94795C0.580078 4.90795 0.580078 8.99995 0.580078 8.99995C0.580078 8.99995 0.580078 13.092 1.10408 15.052C1.39208 16.132 2.24408 16.9839 3.32808 17.2759C5.29208 17.7999 13.1521 17.7999 13.1521 17.7999C13.1521 17.7999 21.0161 17.7999 22.9761 17.2759C24.0561 16.9879 24.9081 16.136 25.2001 15.052C25.7241 13.092 25.7241 8.99995 25.7241 8.99995C25.7241 8.99995 25.7241 4.90795 25.2001 2.94795Z" fill="#FF0000"/>
<path d="M10.6401 12.772L17.1721 9.00003L10.6401 5.22803V12.772Z" fill="white"/>
</svg>
